<?xml version="1.0" standalone="no"?>
<svg
  width="600"
  height="600"
  viewBox="0 0 600 600"
  xmlns="http://www.w3.org/2000/svg"
>
  <g transform="translate(300,300)">
    <path d="M110.9,-160.8C147.6,-149,183.9,-124.8,201.1,-90.8C218.4,-56.7,216.6,-12.9,209.5,29.5C202.4,71.9,190,112.9,164.8,143.7C139.5,174.6,101.5,195.2,60.4,208.8C19.3,222.3,-24.9,228.7,-52.3,207.3C-79.8,186,-90.5,136.9,-119.1,103.4C-147.7,70,-194.1,52.3,-198.3,28.1C-202.5,3.8,-164.5,-27,-144,-63.3C-123.6,-99.6,-120.7,-141.5,-99.6,-160.4C-78.6,-179.3,-39.3,-175.1,-1.1,-173.4C37.1,-171.8,74.2,-172.5,110.9,-160.8Z" fill="#3983dd" />
  </g>
</svg>
  