<?xml version="1.0" standalone="no"?>
<svg
  width="600"
  height="600"
  viewBox="0 0 600 600"
  xmlns="http://www.w3.org/2000/svg"
>
  <g transform="translate(300,300)">
    <path d="M137.1,-215.5C172.6,-190.6,192.7,-143.9,208.4,-98.4C224.1,-53,235.3,-8.8,234.3,37.3C233.3,83.4,220.2,131.4,190,162.5C159.7,193.5,112.4,207.6,70.2,204.1C27.9,200.5,-9.3,179.4,-56.9,174.4C-104.6,169.3,-162.6,180.3,-195.3,159.7C-228,139.1,-235.2,87,-229.4,41C-223.5,-5,-204.5,-44.9,-178.7,-73.4C-152.9,-101.9,-120.2,-119.1,-89.3,-146.1C-58.4,-173.2,-29.2,-210.1,10.8,-226.9C50.8,-243.7,101.6,-240.5,137.1,-215.5Z" fill="#388174" />
  </g>
</svg>
  