<?xml version="1.0" standalone="no"?>
<svg
  width="600"
  height="600"
  viewBox="0 0 600 600"
  xmlns="http://www.w3.org/2000/svg"
>
  <g transform="translate(300,300)">
    <path d="M98,-165.5C123.9,-135.8,139.7,-103.4,159.8,-69.9C179.9,-36.4,204.3,-1.8,213.8,40.7C223.2,83.3,217.8,133.6,188.4,157.9C159,182.2,105.7,180.3,58.2,190.9C10.7,201.5,-31,224.5,-66.6,218C-102.1,211.5,-131.5,175.5,-156.1,139.5C-180.6,103.5,-200.2,67.6,-202.3,31.1C-204.4,-5.4,-189.1,-42.4,-177.7,-86.9C-166.3,-131.4,-158.8,-183.5,-129.9,-211.8C-100.9,-240,-50.5,-244.5,-7.2,-233.3C36,-222.1,72.1,-195.2,98,-165.5Z" fill="#4a5de6" />
  </g>
</svg>
  