<?xml version="1.0" standalone="no"?>
<svg
  width="600"
  height="600"
  viewBox="0 0 600 600"
  xmlns="http://www.w3.org/2000/svg"
>
  <g transform="translate(300,300)">
    <path d="M119.9,-195.3C144.3,-170.9,145.4,-118.9,147.4,-78C149.4,-37.1,152.4,-7.4,164.5,35.4C176.7,78.2,197.9,134.1,184.3,172.2C170.7,210.4,122.3,230.9,78,225.5C33.8,220,-6.2,188.7,-51.8,175.6C-97.3,162.5,-148.4,167.7,-161.3,144.4C-174.3,121.2,-149,69.5,-148.8,25.6C-148.6,-18.3,-173.4,-54.4,-173.5,-89.5C-173.5,-124.6,-148.6,-158.6,-115.6,-179C-82.5,-199.4,-41.3,-206.2,3.2,-211.3C47.8,-216.3,95.5,-219.6,119.9,-195.3Z" fill="#49c5b6" />
  </g>
</svg>
  