<?xml version="1.0" standalone="no"?>
<svg
  width="600"
  height="600"
  viewBox="0 0 600 600"
  xmlns="http://www.w3.org/2000/svg"
>
  <g transform="translate(300,300)">
    <path d="M133.2,-205C170.5,-183.2,197.1,-142.7,201.4,-101.4C205.6,-60,187.4,-17.8,171.5,17.7C155.7,53.3,142.1,82.3,123.5,111.1C104.9,139.8,81.3,168.2,47.2,193C13.1,217.8,-31.6,238.9,-58.7,221.2C-85.7,203.5,-95,146.9,-109.1,107.5C-123.3,68,-142.3,45.6,-159.1,14.9C-175.8,-15.7,-190.2,-54.6,-178.9,-82.7C-167.6,-110.8,-130.6,-128.2,-96.5,-151.4C-62.4,-174.7,-31.2,-203.8,8.4,-216.9C47.9,-229.9,95.9,-226.8,133.2,-205Z" fill="#f08c35" />
  </g>
</svg>
  