<?xml version="1.0" standalone="no"?>
<svg
  width="600"
  height="600"
  viewBox="0 0 600 600"
  xmlns="http://www.w3.org/2000/svg"
>
  <g transform="translate(300,300)">
    <path d="M66.1,-121.7C86.4,-89.8,104.1,-72.7,131.3,-49.4C158.5,-26,195,3.6,209.9,43.4C224.7,83.1,217.8,132.9,188.7,159.7C159.5,186.4,108.2,190.1,63.4,192.6C18.6,195.1,-19.7,196.4,-51.5,183.4C-83.3,170.4,-108.5,143.2,-130.2,114.7C-151.9,86.3,-170,56.7,-178.9,23.1C-187.8,-10.5,-187.6,-48,-182,-92.6C-176.5,-137.2,-165.5,-188.9,-134.3,-215.8C-103.1,-242.7,-51.5,-244.9,-14.3,-222.6C22.9,-200.3,45.8,-153.6,66.1,-121.7Z" fill="#7a55e7" />
  </g>
</svg>
  