<?xml version="1.0" standalone="no"?>
<svg
  width="600"
  height="600"
  viewBox="0 0 600 600"
  xmlns="http://www.w3.org/2000/svg"
>
  <g transform="translate(300,300)">
    <path d="M78.3,-125C98.9,-108.6,111.3,-82.5,131.7,-55.1C152.1,-27.7,180.5,1.2,190.6,37.2C200.7,73.3,192.6,116.5,170.8,156.1C149.1,195.8,113.9,231.7,76.4,228.1C38.9,224.5,-0.8,181.3,-51.4,169.1C-101.9,156.9,-163.2,175.7,-184.4,156.7C-205.7,137.7,-187,81,-186.9,31.5C-186.8,-17.9,-205.3,-60.1,-189.4,-83C-173.5,-106,-123.2,-109.8,-86,-118.6C-48.7,-127.4,-24.3,-141.2,2.3,-144.7C28.8,-148.2,57.7,-141.4,78.3,-125Z" fill="#ec5b55" />
  </g>
</svg>
  