<?xml version="1.0" standalone="no"?>
<svg
  width="600"
  height="600"
  viewBox="0 0 600 600"
  xmlns="http://www.w3.org/2000/svg"
>
  <g transform="translate(300,300)">
    <path d="M105,-153.7C146.5,-136.6,197.9,-125.2,221.9,-94.8C246,-64.4,242.8,-15,218.4,18.8C194,52.6,148.4,70.9,118.2,98.4C88.1,125.9,73.3,162.7,43.8,190.3C14.2,217.8,-30.2,236,-58.1,218.5C-86,200.9,-97.4,147.6,-133.3,112.2C-169.2,76.8,-229.6,59.2,-255,23.6C-280.4,-11.9,-270.7,-65.6,-241.7,-102.5C-212.6,-139.5,-164.2,-159.8,-120.6,-175.9C-77.1,-192,-38.6,-204,-3.4,-198.7C31.7,-193.4,63.4,-170.7,105,-153.7Z" fill="#a9d1d5" />
  </g>
</svg>
  