<?xml version="1.0" standalone="no"?>
<svg
  width="600"
  height="600"
  viewBox="0 0 600 600"
  xmlns="http://www.w3.org/2000/svg"
>
  <g transform="translate(300,300)">
    <path d="M113.1,-157.8C157.4,-147.6,211.5,-134.4,239.7,-101.1C267.8,-67.8,270,-14.3,240.9,19C211.7,52.3,151.2,65.4,119.5,105.4C87.8,145.5,84.9,212.3,58.6,237.3C32.3,262.3,-17.4,245.3,-53.1,217.9C-88.8,190.4,-110.5,152.5,-145,121C-179.6,89.5,-226.9,64.5,-245.3,26.9C-263.7,-10.7,-253.3,-60.8,-229.3,-101.2C-205.3,-141.5,-167.8,-172.1,-127.3,-184.1C-86.9,-196.2,-43.4,-189.6,-4.5,-182.6C34.4,-175.6,68.8,-168.1,113.1,-157.8Z" fill="#f9dd6c" />
  </g>
</svg>
  